<svg width="171" height="42" viewBox="0 0 171 42" fill="none" xmlns="http://www.w3.org/2000/svg">
<path d="M5.60156 7.79688V20.5703H13.4531V23.5H2.34375V7.79688H5.60156ZM30.6094 7.75V17.2891C30.6094 18.6484 30.3047 19.8203 29.6953 20.8047C29.1016 21.7734 28.2891 22.5234 27.2578 23.0547C26.2422 23.5703 25.1016 23.8281 23.8359 23.8281C22.5703 23.8281 21.4219 23.5703 20.3906 23.0547C19.3594 22.5234 18.5391 21.7734 17.9297 20.8047C17.3359 19.8203 17.0391 18.6484 17.0391 17.2891V7.75H20.2969V17.1016C20.2969 18.3047 20.6172 19.2109 21.2578 19.8203C21.9141 20.4141 22.7734 20.7031 23.8359 20.6875C24.8828 20.6875 25.7344 20.3906 26.3906 19.7969C27.0469 19.2031 27.375 18.3047 27.375 17.1016V7.75H30.6094ZM42.0703 7.44531C43.0547 7.44531 43.9062 7.58594 44.625 7.86719C45.3438 8.13281 45.9688 8.5 46.5 8.96875V12.25C46.125 11.9688 45.7344 11.6953 45.3281 11.4297C44.9219 11.1641 44.4609 10.9453 43.9453 10.7734C43.4453 10.6016 42.8516 10.5156 42.1641 10.5156C41.2266 10.5156 40.375 10.7422 39.6094 11.1953C38.8438 11.6484 38.2344 12.2578 37.7812 13.0234C37.3281 13.7891 37.1016 14.6641 37.1016 15.6484C37.1016 16.6172 37.3281 17.4922 37.7812 18.2734C38.2344 19.0391 38.8438 19.6484 39.6094 20.1016C40.375 20.5391 41.2266 20.7578 42.1641 20.7578C43.2109 20.7578 44.0859 20.6016 44.7891 20.2891C45.5078 19.9609 46.1562 19.5625 46.7344 19.0938V22.2578C46.2031 22.7422 45.5391 23.1328 44.7422 23.4297C43.9453 23.7109 43.0547 23.8516 42.0703 23.8516C40.9453 23.8516 39.8828 23.6562 38.8828 23.2656C37.8828 22.8594 37 22.2969 36.2344 21.5781C35.4688 20.8438 34.8672 19.9766 34.4297 18.9766C33.9922 17.9766 33.7734 16.8672 33.7734 15.6484C33.7734 14.4297 33.9922 13.3203 34.4297 12.3203C34.8672 11.3203 35.4688 10.4609 36.2344 9.74219C37 9.00781 37.8828 8.44531 38.8828 8.05469C39.8828 7.64844 40.9453 7.44531 42.0703 7.44531ZM65.6953 7.67969V23.5H62.4375V13.9375L58.4062 18.3438H57.4688L53.3906 13.9375V23.5H50.1328V7.67969H51.2344L57.9375 14.6641L64.5938 7.67969H65.6953ZM77.2031 7.67969L84.5156 23.5H80.6953L79.5 20.5703H73.2891L72.0938 23.5H68.2734L75.5859 7.67969H77.2031ZM76.4062 13L74.4375 17.8047H78.375L76.4062 13ZM93.0234 7.42188C94.2422 7.42188 95.3047 7.61719 96.2109 8.00781C97.1172 8.38281 97.8203 8.90625 98.3203 9.57812C98.8359 10.25 99.0938 11.0234 99.0938 11.8984C99.0938 12.6797 98.8828 13.375 98.4609 13.9844C98.0547 14.5938 97.5391 15.0625 96.9141 15.3906C97.3828 15.5156 97.8359 15.7266 98.2734 16.0234C98.7109 16.3047 99.0703 16.6875 99.3516 17.1719C99.6328 17.6406 99.7734 18.2422 99.7734 18.9766C99.7734 19.8516 99.5078 20.6562 98.9766 21.3906C98.4453 22.1094 97.7031 22.6875 96.75 23.125C95.7969 23.5625 94.6875 23.7812 93.4219 23.7812C92.7344 23.7812 91.9922 23.75 91.1953 23.6875C90.3984 23.6406 89.6406 23.5703 88.9219 23.4766C88.2031 23.3672 87.5938 23.2578 87.0938 23.1484V8.00781C87.9688 7.82031 88.9141 7.67969 89.9297 7.58594C90.9453 7.47656 91.9766 7.42188 93.0234 7.42188ZM93.0234 10.3984C92.0234 10.3984 91.1328 10.4766 90.3516 10.6328V14.4297H93.2812C94.0781 14.4297 94.7031 14.2344 95.1562 13.8438C95.625 13.4531 95.8594 12.9531 95.8594 12.3438C95.8594 11.7188 95.5781 11.2422 95.0156 10.9141C94.4688 10.5703 93.8047 10.3984 93.0234 10.3984ZM90.3516 20.5703C90.7891 20.6797 91.2891 20.7578 91.8516 20.8047C92.4297 20.8359 92.8906 20.8516 93.2344 20.8516C94.1406 20.8516 94.8828 20.6719 95.4609 20.3125C96.0547 19.9531 96.3516 19.4453 96.3516 18.7891C96.3516 18.1328 96.0469 17.6484 95.4375 17.3359C94.8281 17.0078 94.0938 16.8438 93.2344 16.8438H90.3516V20.5703ZM110.086 7.67969L117.398 23.5H113.578L112.383 20.5703H106.172L104.977 23.5H101.156L108.469 7.67969H110.086ZM109.289 13L107.32 17.8047H111.258L109.289 13ZM135.539 7.67969V23.5H132.281V13.9375L128.25 18.3438H127.312L123.234 13.9375V23.5H119.977V7.67969H121.078L127.781 14.6641L134.438 7.67969H135.539ZM146.156 7.42188C147.375 7.42188 148.438 7.61719 149.344 8.00781C150.25 8.38281 150.953 8.90625 151.453 9.57812C151.969 10.25 152.227 11.0234 152.227 11.8984C152.227 12.6797 152.016 13.375 151.594 13.9844C151.188 14.5938 150.672 15.0625 150.047 15.3906C150.516 15.5156 150.969 15.7266 151.406 16.0234C151.844 16.3047 152.203 16.6875 152.484 17.1719C152.766 17.6406 152.906 18.2422 152.906 18.9766C152.906 19.8516 152.641 20.6562 152.109 21.3906C151.578 22.1094 150.836 22.6875 149.883 23.125C148.93 23.5625 147.82 23.7812 146.555 23.7812C145.867 23.7812 145.125 23.75 144.328 23.6875C143.531 23.6406 142.773 23.5703 142.055 23.4766C141.336 23.3672 140.727 23.2578 140.227 23.1484V8.00781C141.102 7.82031 142.047 7.67969 143.062 7.58594C144.078 7.47656 145.109 7.42188 146.156 7.42188ZM146.156 10.3984C145.156 10.3984 144.266 10.4766 143.484 10.6328V14.4297H146.414C147.211 14.4297 147.836 14.2344 148.289 13.8438C148.758 13.4531 148.992 12.9531 148.992 12.3438C148.992 11.7188 148.711 11.2422 148.148 10.9141C147.602 10.5703 146.938 10.3984 146.156 10.3984ZM143.484 20.5703C143.922 20.6797 144.422 20.7578 144.984 20.8047C145.562 20.8359 146.023 20.8516 146.367 20.8516C147.273 20.8516 148.016 20.6719 148.594 20.3125C149.188 19.9531 149.484 19.4453 149.484 18.7891C149.484 18.1328 149.18 17.6484 148.57 17.3359C147.961 17.0078 147.227 16.8438 146.367 16.8438H143.484V20.5703ZM163.219 7.67969L170.531 23.5H166.711L165.516 20.5703H159.305L158.109 23.5H154.289L161.602 7.67969H163.219ZM162.422 13L160.453 17.8047H164.391L162.422 13Z" fill="white"/>
<path d="M55.725 31.957V36.8887H58.6645V38.5H53.8988V31.957H55.725ZM70.3488 31.8105C70.7915 31.8105 71.2147 31.8887 71.6184 32.0449C72.0285 32.1947 72.3931 32.416 72.7121 32.709C73.0311 33.002 73.2818 33.36 73.4641 33.7832C73.6529 34.2064 73.7473 34.6882 73.7473 35.2285C73.7473 35.7689 73.6529 36.2507 73.4641 36.6738C73.2818 37.097 73.0311 37.4551 72.7121 37.748C72.3931 38.041 72.0285 38.2656 71.6184 38.4219C71.2147 38.5716 70.7915 38.6465 70.3488 38.6465C69.9061 38.6465 69.4797 38.5716 69.0695 38.4219C68.6659 38.2656 68.3046 38.041 67.9855 37.748C67.6665 37.4551 67.4126 37.097 67.2238 36.6738C67.0415 36.2507 66.9504 35.7689 66.9504 35.2285C66.9504 34.6882 67.0415 34.2064 67.2238 33.7832C67.4126 33.36 67.6665 33.002 67.9855 32.709C68.3046 32.416 68.6659 32.1947 69.0695 32.0449C69.4797 31.8887 69.9061 31.8105 70.3488 31.8105ZM70.3488 33.5195C70.0559 33.5195 69.7954 33.5944 69.5676 33.7441C69.3397 33.8939 69.1574 34.099 69.0207 34.3594C68.8905 34.6133 68.8254 34.903 68.8254 35.2285C68.8254 35.554 68.8905 35.847 69.0207 36.1074C69.1574 36.3613 69.3397 36.5632 69.5676 36.7129C69.7954 36.8626 70.0559 36.9375 70.3488 36.9375C70.6418 36.9375 70.9022 36.8626 71.1301 36.7129C71.3644 36.5632 71.5467 36.3613 71.6769 36.1074C71.8072 35.847 71.8723 35.554 71.8723 35.2285C71.8723 34.903 71.8072 34.6133 71.6769 34.3594C71.5467 34.099 71.3644 33.8939 71.1301 33.7441C70.9022 33.5944 70.6418 33.5195 70.3488 33.5195ZM85.3828 31.8008C86.0339 31.8008 86.623 31.931 87.1504 32.1914C87.6777 32.4518 88.0977 32.8294 88.4102 33.3242C88.7227 33.819 88.8789 34.418 88.8789 35.1211C88.8789 35.6029 88.7975 36.0586 88.6348 36.4883C88.4785 36.9115 88.2539 37.2858 87.9609 37.6113C87.668 37.9368 87.3164 38.1908 86.9062 38.373C86.4961 38.5553 86.0371 38.6465 85.5293 38.6465C85.2298 38.6465 84.9108 38.6335 84.5723 38.6074C84.2402 38.5879 83.9147 38.5553 83.5957 38.5098C83.2767 38.4707 82.9837 38.4251 82.7168 38.373V32.0742C83.1335 32.0026 83.5729 31.9408 84.0352 31.8887C84.5039 31.8301 84.9531 31.8008 85.3828 31.8008ZM85.4414 33.5098C85.2917 33.5098 85.1354 33.5228 84.9727 33.5488C84.8164 33.5684 84.6732 33.5944 84.543 33.627V36.8203C84.6927 36.8659 84.8457 36.8984 85.002 36.918C85.1582 36.931 85.3047 36.9375 85.4414 36.9375C85.7734 36.9375 86.0534 36.8626 86.2812 36.7129C86.5156 36.5566 86.6947 36.3483 86.8184 36.0879C86.9421 35.8275 87.0039 35.5378 87.0039 35.2188C87.0039 34.7109 86.8672 34.3008 86.5938 33.9883C86.3268 33.6693 85.9427 33.5098 85.4414 33.5098ZM101.657 34.9941H103.22V37.6309C102.914 37.9499 102.559 38.2005 102.155 38.3828C101.758 38.5586 101.315 38.6465 100.827 38.6465C100.384 38.6465 99.9546 38.5716 99.5379 38.4219C99.1277 38.2656 98.7566 38.041 98.4246 37.748C98.0991 37.4551 97.8387 37.097 97.6434 36.6738C97.4546 36.2507 97.3602 35.7689 97.3602 35.2285C97.3602 34.6882 97.4546 34.2064 97.6434 33.7832C97.8387 33.36 98.0991 33.002 98.4246 32.709C98.7566 32.416 99.1277 32.1947 99.5379 32.0449C99.9546 31.8887 100.384 31.8105 100.827 31.8105C101.172 31.8105 101.491 31.8594 101.784 31.957C102.077 32.0547 102.334 32.1979 102.555 32.3867V34.1543C102.295 33.946 102.048 33.7897 101.813 33.6855C101.579 33.5749 101.273 33.5195 100.895 33.5195C100.602 33.5195 100.329 33.5944 100.075 33.7441C99.8276 33.8939 99.6258 34.099 99.4695 34.3594C99.3133 34.6133 99.2352 34.903 99.2352 35.2285C99.2352 35.554 99.3133 35.847 99.4695 36.1074C99.6258 36.3613 99.8276 36.5632 100.075 36.7129C100.329 36.8626 100.602 36.9375 100.895 36.9375C101.045 36.9375 101.185 36.9245 101.315 36.8984C101.445 36.8659 101.556 36.8268 101.647 36.7812L101.657 34.9941ZM116.857 34.5059V35.873H114.259V36.9375H117.199V38.5H112.433V31.957H117.199V33.4707H114.259V34.5059H116.857Z" fill="#47D7AC"/>
</svg>
